<?xml version="1.0" encoding="UTF-8"?>
<!-- Created with Inkscape (http://www.inkscape.org/) -->
<svg width="210mm" height="297mm" version="1.1" viewBox="0 0 210 297" xmlns="http://www.w3.org/2000/svg" xmlns:xlink="http://www.w3.org/1999/xlink">
 <g>
  <rect x="-27.465" y="179.58" width="211.7" height="104.74" fill="#eee9e3"/>
  <g transform="matrix(.2097 0 0 .2097 11.02 214.81)" fill="#8aa7e1">
   <g fill="#8aa7e1">
    <g fill="#8aa7e1">
     <path d="m137.89 275.78c53.411 0 96.87-43.45 96.87-96.861 0-52.308-90.786-171.02-94.65-176.05l-2.22-2.873-2.22 2.892c-3.859 5.018-94.651 123.74-94.651 176.04 0 53.401 43.458 96.851 96.871 96.851z"/>
     <path d="m137.89 275.78c53.411 0 96.87-43.45 96.87-96.861 0-52.308-90.786-171.02-94.65-176.05l-2.22-2.873-2.22 2.892c-3.859 5.018-94.651 123.74-94.651 176.04 0 53.401 43.458 96.851 96.871 96.851zm0-266.56c14.177 18.895 91.267 123.69 91.267 169.7 0 50.31-40.952 91.255-91.267 91.255-50.324 0-91.268-40.945-91.268-91.255 0-46.009 77.087-150.81 91.268-169.7z"/>
    </g>
   </g>
  </g>
  <g transform="matrix(.3072 0 0 .3072 -27.824 187.92)" fill="#4c6ec2">
   <g fill="#4c6ec2">
    <g fill="#4c6ec2">
     <path d="m137.89 275.78c53.411 0 96.87-43.45 96.87-96.861 0-52.308-90.786-171.02-94.65-176.05l-2.22-2.873-2.22 2.892c-3.859 5.018-94.651 123.74-94.651 176.04 0 53.401 43.458 96.851 96.871 96.851z"/>
     <path d="m137.89 275.78c53.411 0 96.87-43.45 96.87-96.861 0-52.308-90.786-171.02-94.65-176.05l-2.22-2.873-2.22 2.892c-3.859 5.018-94.651 123.74-94.651 176.04 0 53.401 43.458 96.851 96.871 96.851zm0-266.56c14.177 18.895 91.267 123.69 91.267 169.7 0 50.31-40.952 91.255-91.267 91.255-50.324 0-91.268-40.945-91.268-91.255 0-46.009 77.087-150.81 91.268-169.7z"/>
    </g>
   </g>
  </g>
  <text x="67.389206" y="249.35815" fill="#4c6ec2" font-family="'DejaVu Sans Mono'" font-size="29.459px" font-weight="bold" stroke-width=".15343" style="line-height:1.25" xml:space="preserve"><tspan x="67.389206" y="249.35815" fill="#4c6ec2" font-family="'DejaVu Sans Mono'" font-size="29.459px" font-weight="bold" stroke-width=".15343">KNMI</tspan></text>
  <text x="67.242958" y="265.74094" fill="#8aa7e1" font-family="'DejaVu Sans Mono'" font-size="22.503px" font-weight="bold" stroke-width=".15343" style="line-height:1.25" xml:space="preserve"><tspan x="67.242958" y="265.74094" fill="#8aa7e1" font-family="'DejaVu Sans Mono'" font-size="22.503px" font-weight="bold" stroke-width=".15343">nowcast.</tspan></text>
 </g>
</svg>
